<?xml version="1.0" encoding="utf-8"?>
<!-- Generator: Adobe Illustrator 27.3.1, SVG Export Plug-In . SVG Version: 6.00 Build 0)  -->
<svg version="1.1" id="Layer_1" xmlns="http://www.w3.org/2000/svg" xmlns:xlink="http://www.w3.org/1999/xlink" x="0px" y="0px"
	 viewBox="0 0 24 24" style="enable-background:new 0 0 24 24;" xml:space="preserve">
<path d="M13.4,3.7c0.2,0,0.3,0,0.5,0c1.4,0,2.8,0.1,4.2,0.1c1,0,1.9,0.1,2.9,0.3c1.3,0.3,2.2,1,2.4,2.3c0.2,0.8,0.3,1.5,0.3,2.3
	c0.1,1.3,0.2,2.6,0.1,3.8c0,1.3-0.1,2.6-0.3,3.9c-0.1,0.5-0.1,1.1-0.4,1.5c-0.4,1-1.2,1.6-2.3,1.8c-0.9,0.1-1.8,0.2-2.7,0.3
	c-3.1,0.2-6.3,0.1-9.4,0.1c-1.5,0-3.1-0.1-4.6-0.2c-0.5,0-1.1-0.1-1.6-0.3c-1.1-0.4-1.7-1.1-2-2.3c-0.2-0.9-0.3-1.7-0.3-2.6
	c0-1.1-0.1-2.2-0.1-3.2c0-1.2,0.1-2.4,0.2-3.6c0-0.6,0.1-1.3,0.3-1.9C1.1,5,1.9,4.4,3,4.2C3.9,4,4.7,4,5.6,3.9
	c1.6-0.1,3.2-0.1,4.9-0.2c0.1,0,0.1,0,0.2,0C11.5,3.7,12.5,3.7,13.4,3.7z M9.6,15.6c2.1-1.2,4.1-2.4,6.2-3.6
	c-2.1-1.2-4.1-2.4-6.2-3.6C9.6,10.8,9.6,13.2,9.6,15.6z"/>
</svg>
